<mxfile host="Electron" modified="2024-07-21T06:27:36.524Z" agent="Mozilla/5.0 (Windows NT 10.0; Win64; x64) AppleWebKit/537.36 (KHTML, like Gecko) draw.io/24.5.3 Chrome/124.0.6367.207 Electron/30.0.6 Safari/537.36" etag="AQXyVyoURcVRv7UUHKJk" version="24.5.3" type="device">
  <diagram name="Page-1" id="Jzr_n3ekjLXEncdgw8wU">
    <mxGraphModel dx="875" dy="518" grid="1" gridSize="10" guides="1" tooltips="1" connect="1" arrows="1" fold="1" page="1" pageScale="1" pageWidth="1100" pageHeight="850" background="#ffffff" math="0" shadow="1">
      <root>
        <mxCell id="0" />
        <mxCell id="1" parent="0" />
        <mxCell id="FQ3WjTD64qkLmLY8OWqv-43" style="edgeStyle=orthogonalEdgeStyle;rounded=0;orthogonalLoop=1;jettySize=auto;html=1;exitX=0.75;exitY=1;exitDx=0;exitDy=0;entryX=0.5;entryY=0;entryDx=0;entryDy=0;labelBackgroundColor=none;fontColor=default;strokeColor=#457B9D;" parent="1" source="FQ3WjTD64qkLmLY8OWqv-2" target="FQ3WjTD64qkLmLY8OWqv-33" edge="1">
          <mxGeometry relative="1" as="geometry" />
        </mxCell>
        <mxCell id="VAFXoOhc2AC8gTYa5GrT-7" style="edgeStyle=orthogonalEdgeStyle;rounded=0;orthogonalLoop=1;jettySize=auto;html=1;entryX=0;entryY=0.5;entryDx=0;entryDy=0;labelBackgroundColor=none;fontColor=default;strokeColor=#457B9D;" parent="1" source="FQ3WjTD64qkLmLY8OWqv-2" target="VAFXoOhc2AC8gTYa5GrT-4" edge="1">
          <mxGeometry relative="1" as="geometry" />
        </mxCell>
        <mxCell id="VAFXoOhc2AC8gTYa5GrT-24" style="edgeStyle=orthogonalEdgeStyle;rounded=0;orthogonalLoop=1;jettySize=auto;html=1;exitX=1;exitY=0;exitDx=0;exitDy=0;labelBackgroundColor=none;fontColor=default;strokeColor=#457B9D;" parent="1" source="FQ3WjTD64qkLmLY8OWqv-2" edge="1">
          <mxGeometry relative="1" as="geometry">
            <mxPoint x="467" y="340" as="targetPoint" />
          </mxGeometry>
        </mxCell>
        <mxCell id="VAFXoOhc2AC8gTYa5GrT-30" style="edgeStyle=orthogonalEdgeStyle;rounded=0;orthogonalLoop=1;jettySize=auto;html=1;exitX=1;exitY=0.25;exitDx=0;exitDy=0;entryX=0;entryY=0.5;entryDx=0;entryDy=0;labelBackgroundColor=none;fontColor=default;strokeColor=#457B9D;" parent="1" source="FQ3WjTD64qkLmLY8OWqv-2" target="VAFXoOhc2AC8gTYa5GrT-26" edge="1">
          <mxGeometry relative="1" as="geometry" />
        </mxCell>
        <mxCell id="FQ3WjTD64qkLmLY8OWqv-2" value="&lt;b&gt;&lt;font style=&quot;font-size: 14px;&quot;&gt;Customer&lt;/font&gt;&lt;/b&gt;" style="rounded=0;whiteSpace=wrap;html=1;labelBackgroundColor=none;fillColor=#A8DADC;strokeColor=#457B9D;fontColor=#1D3557;" parent="1" vertex="1">
          <mxGeometry x="377" y="341" width="90" height="40" as="geometry" />
        </mxCell>
        <mxCell id="FQ3WjTD64qkLmLY8OWqv-45" style="edgeStyle=orthogonalEdgeStyle;rounded=0;orthogonalLoop=1;jettySize=auto;html=1;exitX=0.25;exitY=1;exitDx=0;exitDy=0;labelBackgroundColor=none;fontColor=default;strokeColor=#457B9D;" parent="1" source="FQ3WjTD64qkLmLY8OWqv-3" target="FQ3WjTD64qkLmLY8OWqv-37" edge="1">
          <mxGeometry relative="1" as="geometry" />
        </mxCell>
        <mxCell id="VAFXoOhc2AC8gTYa5GrT-8" style="edgeStyle=orthogonalEdgeStyle;rounded=0;orthogonalLoop=1;jettySize=auto;html=1;entryX=1;entryY=0.5;entryDx=0;entryDy=0;labelBackgroundColor=none;fontColor=default;strokeColor=#457B9D;" parent="1" source="FQ3WjTD64qkLmLY8OWqv-3" target="VAFXoOhc2AC8gTYa5GrT-4" edge="1">
          <mxGeometry relative="1" as="geometry">
            <Array as="points">
              <mxPoint x="620" y="361" />
              <mxPoint x="620" y="471" />
            </Array>
          </mxGeometry>
        </mxCell>
        <mxCell id="FQ3WjTD64qkLmLY8OWqv-3" value="&lt;b&gt;&lt;font style=&quot;font-size: 14px;&quot;&gt;Owner&lt;/font&gt;&lt;/b&gt;" style="rounded=0;whiteSpace=wrap;html=1;labelBackgroundColor=none;fillColor=#A8DADC;strokeColor=#457B9D;fontColor=#1D3557;" parent="1" vertex="1">
          <mxGeometry x="637" y="341" width="100" height="40" as="geometry" />
        </mxCell>
        <mxCell id="FQ3WjTD64qkLmLY8OWqv-16" style="edgeStyle=orthogonalEdgeStyle;rounded=0;orthogonalLoop=1;jettySize=auto;html=1;exitX=1;exitY=0.5;exitDx=0;exitDy=0;entryX=0.25;entryY=0;entryDx=0;entryDy=0;labelBackgroundColor=none;fontColor=default;strokeColor=#457B9D;" parent="1" source="FQ3WjTD64qkLmLY8OWqv-4" target="FQ3WjTD64qkLmLY8OWqv-2" edge="1">
          <mxGeometry relative="1" as="geometry" />
        </mxCell>
        <mxCell id="FQ3WjTD64qkLmLY8OWqv-4" value="c_name" style="ellipse;whiteSpace=wrap;html=1;labelBackgroundColor=none;fillColor=#A8DADC;strokeColor=#457B9D;fontColor=#1D3557;" parent="1" vertex="1">
          <mxGeometry x="307" y="301" width="70" height="30" as="geometry" />
        </mxCell>
        <mxCell id="FQ3WjTD64qkLmLY8OWqv-15" style="edgeStyle=orthogonalEdgeStyle;rounded=0;orthogonalLoop=1;jettySize=auto;html=1;exitX=1;exitY=1;exitDx=0;exitDy=0;labelBackgroundColor=none;fontColor=default;strokeColor=#457B9D;" parent="1" source="FQ3WjTD64qkLmLY8OWqv-5" target="FQ3WjTD64qkLmLY8OWqv-2" edge="1">
          <mxGeometry relative="1" as="geometry" />
        </mxCell>
        <mxCell id="FQ3WjTD64qkLmLY8OWqv-5" value="&lt;u&gt;&lt;b&gt;c_id&lt;/b&gt;&lt;/u&gt;" style="ellipse;whiteSpace=wrap;html=1;labelBackgroundColor=none;fillColor=#A8DADC;strokeColor=#457B9D;fontColor=#1D3557;" parent="1" vertex="1">
          <mxGeometry x="362" y="271" width="70" height="30" as="geometry" />
        </mxCell>
        <mxCell id="ADbwqhk_q8TL12jHsv7n-8" value="" style="edgeStyle=orthogonalEdgeStyle;rounded=0;orthogonalLoop=1;jettySize=auto;html=1;labelBackgroundColor=none;strokeColor=#457B9D;fontColor=default;" edge="1" parent="1" source="FQ3WjTD64qkLmLY8OWqv-6" target="FQ3WjTD64qkLmLY8OWqv-2">
          <mxGeometry relative="1" as="geometry" />
        </mxCell>
        <mxCell id="FQ3WjTD64qkLmLY8OWqv-6" value="email" style="ellipse;whiteSpace=wrap;html=1;labelBackgroundColor=none;fillColor=#A8DADC;strokeColor=#457B9D;fontColor=#1D3557;" parent="1" vertex="1">
          <mxGeometry x="277" y="341" width="70" height="30" as="geometry" />
        </mxCell>
        <mxCell id="FQ3WjTD64qkLmLY8OWqv-19" style="edgeStyle=orthogonalEdgeStyle;rounded=0;orthogonalLoop=1;jettySize=auto;html=1;exitX=1;exitY=0.5;exitDx=0;exitDy=0;entryX=0.25;entryY=1;entryDx=0;entryDy=0;labelBackgroundColor=none;fontColor=default;strokeColor=#457B9D;" parent="1" source="FQ3WjTD64qkLmLY8OWqv-7" target="FQ3WjTD64qkLmLY8OWqv-2" edge="1">
          <mxGeometry relative="1" as="geometry" />
        </mxCell>
        <mxCell id="FQ3WjTD64qkLmLY8OWqv-7" value="number" style="ellipse;whiteSpace=wrap;html=1;labelBackgroundColor=none;fillColor=#A8DADC;strokeColor=#457B9D;fontColor=#1D3557;" parent="1" vertex="1">
          <mxGeometry x="297" y="381" width="70" height="30" as="geometry" />
        </mxCell>
        <mxCell id="FQ3WjTD64qkLmLY8OWqv-20" style="edgeStyle=orthogonalEdgeStyle;rounded=0;orthogonalLoop=1;jettySize=auto;html=1;exitX=1;exitY=0;exitDx=0;exitDy=0;entryX=0.5;entryY=1;entryDx=0;entryDy=0;labelBackgroundColor=none;fontColor=default;strokeColor=#457B9D;" parent="1" source="FQ3WjTD64qkLmLY8OWqv-8" target="FQ3WjTD64qkLmLY8OWqv-2" edge="1">
          <mxGeometry relative="1" as="geometry" />
        </mxCell>
        <mxCell id="FQ3WjTD64qkLmLY8OWqv-8" value="addresss" style="ellipse;whiteSpace=wrap;html=1;labelBackgroundColor=none;fillColor=#A8DADC;strokeColor=#457B9D;fontColor=#1D3557;" parent="1" vertex="1">
          <mxGeometry x="327" y="421" width="70" height="30" as="geometry" />
        </mxCell>
        <mxCell id="FQ3WjTD64qkLmLY8OWqv-27" style="edgeStyle=orthogonalEdgeStyle;rounded=0;orthogonalLoop=1;jettySize=auto;html=1;entryX=0.25;entryY=0;entryDx=0;entryDy=0;labelBackgroundColor=none;fontColor=default;strokeColor=#457B9D;" parent="1" source="FQ3WjTD64qkLmLY8OWqv-21" target="FQ3WjTD64qkLmLY8OWqv-3" edge="1">
          <mxGeometry relative="1" as="geometry" />
        </mxCell>
        <mxCell id="FQ3WjTD64qkLmLY8OWqv-21" value="&lt;u&gt;&lt;b&gt;o_id&lt;/b&gt;&lt;/u&gt;" style="ellipse;whiteSpace=wrap;html=1;labelBackgroundColor=none;fillColor=#A8DADC;strokeColor=#457B9D;fontColor=#1D3557;" parent="1" vertex="1">
          <mxGeometry x="627" y="281" width="70" height="30" as="geometry" />
        </mxCell>
        <mxCell id="FQ3WjTD64qkLmLY8OWqv-22" value="o_name" style="ellipse;whiteSpace=wrap;html=1;labelBackgroundColor=none;fillColor=#A8DADC;strokeColor=#457B9D;fontColor=#1D3557;" parent="1" vertex="1">
          <mxGeometry x="707" y="291" width="70" height="30" as="geometry" />
        </mxCell>
        <mxCell id="ADbwqhk_q8TL12jHsv7n-9" style="edgeStyle=orthogonalEdgeStyle;rounded=0;orthogonalLoop=1;jettySize=auto;html=1;exitX=0;exitY=1;exitDx=0;exitDy=0;labelBackgroundColor=none;strokeColor=#457B9D;fontColor=default;" edge="1" parent="1" source="FQ3WjTD64qkLmLY8OWqv-23" target="FQ3WjTD64qkLmLY8OWqv-3">
          <mxGeometry relative="1" as="geometry" />
        </mxCell>
        <mxCell id="FQ3WjTD64qkLmLY8OWqv-23" value="email" style="ellipse;whiteSpace=wrap;html=1;labelBackgroundColor=none;fillColor=#A8DADC;strokeColor=#457B9D;fontColor=#1D3557;" parent="1" vertex="1">
          <mxGeometry x="760" y="330" width="70" height="30" as="geometry" />
        </mxCell>
        <mxCell id="FQ3WjTD64qkLmLY8OWqv-24" value="password" style="ellipse;whiteSpace=wrap;html=1;labelBackgroundColor=none;fillColor=#A8DADC;strokeColor=#457B9D;fontColor=#1D3557;" parent="1" vertex="1">
          <mxGeometry x="747" y="391" width="70" height="30" as="geometry" />
        </mxCell>
        <mxCell id="FQ3WjTD64qkLmLY8OWqv-25" value="number" style="ellipse;whiteSpace=wrap;html=1;labelBackgroundColor=none;fillColor=#A8DADC;strokeColor=#457B9D;fontColor=#1D3557;" parent="1" vertex="1">
          <mxGeometry x="747" y="431" width="70" height="30" as="geometry" />
        </mxCell>
        <mxCell id="FQ3WjTD64qkLmLY8OWqv-32" value="" style="edgeStyle=orthogonalEdgeStyle;rounded=0;orthogonalLoop=1;jettySize=auto;html=1;labelBackgroundColor=none;fontColor=default;strokeColor=#457B9D;" parent="1" source="FQ3WjTD64qkLmLY8OWqv-26" target="FQ3WjTD64qkLmLY8OWqv-3" edge="1">
          <mxGeometry relative="1" as="geometry" />
        </mxCell>
        <mxCell id="FQ3WjTD64qkLmLY8OWqv-26" value="addresss" style="ellipse;whiteSpace=wrap;html=1;labelBackgroundColor=none;fillColor=#A8DADC;strokeColor=#457B9D;fontColor=#1D3557;" parent="1" vertex="1">
          <mxGeometry x="667" y="451" width="70" height="30" as="geometry" />
        </mxCell>
        <mxCell id="FQ3WjTD64qkLmLY8OWqv-28" style="edgeStyle=orthogonalEdgeStyle;rounded=0;orthogonalLoop=1;jettySize=auto;html=1;exitX=0;exitY=1;exitDx=0;exitDy=0;entryX=0.7;entryY=-0.025;entryDx=0;entryDy=0;entryPerimeter=0;labelBackgroundColor=none;fontColor=default;strokeColor=#457B9D;" parent="1" source="FQ3WjTD64qkLmLY8OWqv-22" target="FQ3WjTD64qkLmLY8OWqv-3" edge="1">
          <mxGeometry relative="1" as="geometry" />
        </mxCell>
        <mxCell id="FQ3WjTD64qkLmLY8OWqv-30" style="edgeStyle=orthogonalEdgeStyle;rounded=0;orthogonalLoop=1;jettySize=auto;html=1;exitX=0;exitY=0;exitDx=0;exitDy=0;entryX=0.878;entryY=1.131;entryDx=0;entryDy=0;entryPerimeter=0;labelBackgroundColor=none;fontColor=default;strokeColor=#457B9D;" parent="1" source="FQ3WjTD64qkLmLY8OWqv-24" target="FQ3WjTD64qkLmLY8OWqv-3" edge="1">
          <mxGeometry relative="1" as="geometry" />
        </mxCell>
        <mxCell id="FQ3WjTD64qkLmLY8OWqv-31" style="edgeStyle=orthogonalEdgeStyle;rounded=0;orthogonalLoop=1;jettySize=auto;html=1;exitX=0;exitY=0;exitDx=0;exitDy=0;entryX=0.718;entryY=1.131;entryDx=0;entryDy=0;entryPerimeter=0;labelBackgroundColor=none;fontColor=default;strokeColor=#457B9D;" parent="1" source="FQ3WjTD64qkLmLY8OWqv-25" target="FQ3WjTD64qkLmLY8OWqv-3" edge="1">
          <mxGeometry relative="1" as="geometry" />
        </mxCell>
        <mxCell id="FQ3WjTD64qkLmLY8OWqv-41" style="edgeStyle=orthogonalEdgeStyle;rounded=0;orthogonalLoop=1;jettySize=auto;html=1;entryX=0;entryY=0.5;entryDx=0;entryDy=0;labelBackgroundColor=none;fontColor=default;strokeColor=#457B9D;" parent="1" target="FQ3WjTD64qkLmLY8OWqv-35" edge="1">
          <mxGeometry relative="1" as="geometry">
            <mxPoint x="386.97061728395056" y="540.997037037037" as="sourcePoint" />
            <mxPoint x="457.02" y="640.96" as="targetPoint" />
            <Array as="points">
              <mxPoint x="397" y="541" />
              <mxPoint x="397" y="641" />
            </Array>
          </mxGeometry>
        </mxCell>
        <mxCell id="FQ3WjTD64qkLmLY8OWqv-33" value="&lt;b&gt;View&lt;/b&gt;" style="rhombus;whiteSpace=wrap;html=1;labelBackgroundColor=none;fillColor=#A8DADC;strokeColor=#457B9D;fontColor=#1D3557;" parent="1" vertex="1">
          <mxGeometry x="357" y="501" width="80" height="60" as="geometry" />
        </mxCell>
        <mxCell id="FQ3WjTD64qkLmLY8OWqv-35" value="&lt;b&gt;&lt;font style=&quot;font-size: 14px;&quot;&gt;Property&lt;/font&gt;&lt;/b&gt;" style="rounded=0;whiteSpace=wrap;html=1;labelBackgroundColor=none;fillColor=#A8DADC;strokeColor=#457B9D;fontColor=#1D3557;" parent="1" vertex="1">
          <mxGeometry x="507.5" y="621" width="90" height="40" as="geometry" />
        </mxCell>
        <mxCell id="VAFXoOhc2AC8gTYa5GrT-10" style="edgeStyle=orthogonalEdgeStyle;rounded=0;orthogonalLoop=1;jettySize=auto;html=1;exitX=1;exitY=1;exitDx=0;exitDy=0;entryX=0;entryY=0.25;entryDx=0;entryDy=0;labelBackgroundColor=none;fontColor=default;strokeColor=#457B9D;" parent="1" source="FQ3WjTD64qkLmLY8OWqv-36" target="FQ3WjTD64qkLmLY8OWqv-35" edge="1">
          <mxGeometry relative="1" as="geometry" />
        </mxCell>
        <mxCell id="FQ3WjTD64qkLmLY8OWqv-36" value="&lt;b&gt;&lt;u&gt;p_id&lt;/u&gt;&lt;/b&gt;" style="ellipse;whiteSpace=wrap;html=1;labelBackgroundColor=none;fillColor=#A8DADC;strokeColor=#457B9D;fontColor=#1D3557;" parent="1" vertex="1">
          <mxGeometry x="401" y="599" width="70" height="30" as="geometry" />
        </mxCell>
        <mxCell id="FQ3WjTD64qkLmLY8OWqv-42" style="edgeStyle=orthogonalEdgeStyle;rounded=0;orthogonalLoop=1;jettySize=auto;html=1;entryX=1;entryY=0.5;entryDx=0;entryDy=0;exitX=0.5;exitY=1;exitDx=0;exitDy=0;labelBackgroundColor=none;fontColor=default;strokeColor=#457B9D;" parent="1" source="FQ3WjTD64qkLmLY8OWqv-37" target="FQ3WjTD64qkLmLY8OWqv-35" edge="1">
          <mxGeometry relative="1" as="geometry" />
        </mxCell>
        <mxCell id="FQ3WjTD64qkLmLY8OWqv-37" value="&lt;b&gt;Add&lt;/b&gt;" style="rhombus;whiteSpace=wrap;html=1;labelBackgroundColor=none;fillColor=#A8DADC;strokeColor=#457B9D;fontColor=#1D3557;" parent="1" vertex="1">
          <mxGeometry x="622" y="501" width="80" height="60" as="geometry" />
        </mxCell>
        <mxCell id="VAFXoOhc2AC8gTYa5GrT-11" style="edgeStyle=orthogonalEdgeStyle;rounded=0;orthogonalLoop=1;jettySize=auto;html=1;exitX=1;exitY=1;exitDx=0;exitDy=0;entryX=0.25;entryY=0;entryDx=0;entryDy=0;labelBackgroundColor=none;fontColor=default;strokeColor=#457B9D;" parent="1" source="FQ3WjTD64qkLmLY8OWqv-46" target="FQ3WjTD64qkLmLY8OWqv-35" edge="1">
          <mxGeometry relative="1" as="geometry" />
        </mxCell>
        <mxCell id="FQ3WjTD64qkLmLY8OWqv-46" value="p_type" style="ellipse;whiteSpace=wrap;html=1;labelBackgroundColor=none;fillColor=#A8DADC;strokeColor=#457B9D;fontColor=#1D3557;" parent="1" vertex="1">
          <mxGeometry x="427" y="561" width="70" height="30" as="geometry" />
        </mxCell>
        <mxCell id="FQ3WjTD64qkLmLY8OWqv-53" style="edgeStyle=orthogonalEdgeStyle;rounded=0;orthogonalLoop=1;jettySize=auto;html=1;exitX=0;exitY=0.5;exitDx=0;exitDy=0;entryX=0.75;entryY=0;entryDx=0;entryDy=0;labelBackgroundColor=none;fontColor=default;strokeColor=#457B9D;" parent="1" source="FQ3WjTD64qkLmLY8OWqv-47" target="FQ3WjTD64qkLmLY8OWqv-35" edge="1">
          <mxGeometry relative="1" as="geometry" />
        </mxCell>
        <mxCell id="FQ3WjTD64qkLmLY8OWqv-47" value="p_stauts" style="ellipse;whiteSpace=wrap;html=1;labelBackgroundColor=none;fillColor=#A8DADC;strokeColor=#457B9D;fontColor=#1D3557;" parent="1" vertex="1">
          <mxGeometry x="587" y="581" width="70" height="30" as="geometry" />
        </mxCell>
        <mxCell id="FQ3WjTD64qkLmLY8OWqv-48" value="p_price" style="ellipse;whiteSpace=wrap;html=1;labelBackgroundColor=none;fillColor=#A8DADC;strokeColor=#457B9D;fontColor=#1D3557;" parent="1" vertex="1">
          <mxGeometry x="427" y="671" width="70" height="30" as="geometry" />
        </mxCell>
        <mxCell id="FQ3WjTD64qkLmLY8OWqv-49" value="p_address" style="ellipse;whiteSpace=wrap;html=1;labelBackgroundColor=none;fillColor=#A8DADC;strokeColor=#457B9D;fontColor=#1D3557;" parent="1" vertex="1">
          <mxGeometry x="552" y="710" width="70" height="30" as="geometry" />
        </mxCell>
        <mxCell id="FQ3WjTD64qkLmLY8OWqv-57" style="edgeStyle=orthogonalEdgeStyle;rounded=0;orthogonalLoop=1;jettySize=auto;html=1;entryX=1;entryY=0.75;entryDx=0;entryDy=0;labelBackgroundColor=none;fontColor=default;strokeColor=#457B9D;" parent="1" source="FQ3WjTD64qkLmLY8OWqv-56" target="FQ3WjTD64qkLmLY8OWqv-35" edge="1">
          <mxGeometry relative="1" as="geometry" />
        </mxCell>
        <mxCell id="FQ3WjTD64qkLmLY8OWqv-56" value="p_area" style="ellipse;whiteSpace=wrap;html=1;labelBackgroundColor=none;fillColor=#A8DADC;strokeColor=#457B9D;fontColor=#1D3557;" parent="1" vertex="1">
          <mxGeometry x="627" y="651" width="70" height="30" as="geometry" />
        </mxCell>
        <mxCell id="FQ3WjTD64qkLmLY8OWqv-58" value="&lt;u style=&quot;&quot;&gt;&lt;b&gt;p_id&lt;/b&gt;&lt;/u&gt;" style="ellipse;whiteSpace=wrap;html=1;labelBackgroundColor=none;fillColor=#A8DADC;strokeColor=#457B9D;fontColor=#1D3557;" parent="1" vertex="1">
          <mxGeometry x="622" y="691" width="70" height="30" as="geometry" />
        </mxCell>
        <mxCell id="FQ3WjTD64qkLmLY8OWqv-59" style="edgeStyle=orthogonalEdgeStyle;rounded=0;orthogonalLoop=1;jettySize=auto;html=1;exitX=0;exitY=0;exitDx=0;exitDy=0;entryX=0.946;entryY=0.95;entryDx=0;entryDy=0;entryPerimeter=0;labelBackgroundColor=none;fontColor=default;strokeColor=#457B9D;" parent="1" source="FQ3WjTD64qkLmLY8OWqv-58" target="FQ3WjTD64qkLmLY8OWqv-35" edge="1">
          <mxGeometry relative="1" as="geometry" />
        </mxCell>
        <mxCell id="VAFXoOhc2AC8gTYa5GrT-9" style="edgeStyle=orthogonalEdgeStyle;rounded=0;orthogonalLoop=1;jettySize=auto;html=1;labelBackgroundColor=none;fontColor=default;strokeColor=#457B9D;" parent="1" source="VAFXoOhc2AC8gTYa5GrT-4" target="FQ3WjTD64qkLmLY8OWqv-35" edge="1">
          <mxGeometry relative="1" as="geometry">
            <Array as="points">
              <mxPoint x="555" y="550" />
              <mxPoint x="555" y="550" />
            </Array>
          </mxGeometry>
        </mxCell>
        <mxCell id="VAFXoOhc2AC8gTYa5GrT-4" value="&lt;div&gt;&lt;b&gt;Buy/&lt;/b&gt;&lt;/div&gt;&lt;b&gt;Sell/Rent&lt;/b&gt;" style="rhombus;whiteSpace=wrap;html=1;labelBackgroundColor=none;fillColor=#A8DADC;strokeColor=#457B9D;fontColor=#1D3557;" parent="1" vertex="1">
          <mxGeometry x="510" y="440" width="90" height="61" as="geometry" />
        </mxCell>
        <mxCell id="VAFXoOhc2AC8gTYa5GrT-6" value="&lt;b&gt;&lt;font style=&quot;font-size: 14px;&quot;&gt;Feedback&lt;/font&gt;&lt;/b&gt;" style="rounded=0;whiteSpace=wrap;html=1;labelBackgroundColor=none;fillColor=#A8DADC;strokeColor=#457B9D;fontColor=#1D3557;" parent="1" vertex="1">
          <mxGeometry x="347" y="150" width="90" height="40" as="geometry" />
        </mxCell>
        <mxCell id="VAFXoOhc2AC8gTYa5GrT-12" value="email" style="ellipse;whiteSpace=wrap;html=1;labelBackgroundColor=none;fillColor=#A8DADC;strokeColor=#457B9D;fontColor=#1D3557;" parent="1" vertex="1">
          <mxGeometry x="220" y="80" width="70" height="30" as="geometry" />
        </mxCell>
        <mxCell id="VAFXoOhc2AC8gTYa5GrT-21" style="edgeStyle=orthogonalEdgeStyle;rounded=0;orthogonalLoop=1;jettySize=auto;html=1;entryX=0;entryY=0.5;entryDx=0;entryDy=0;labelBackgroundColor=none;fontColor=default;strokeColor=#457B9D;" parent="1" source="VAFXoOhc2AC8gTYa5GrT-13" target="VAFXoOhc2AC8gTYa5GrT-6" edge="1">
          <mxGeometry relative="1" as="geometry" />
        </mxCell>
        <mxCell id="VAFXoOhc2AC8gTYa5GrT-13" value="concren" style="ellipse;whiteSpace=wrap;html=1;labelBackgroundColor=none;fillColor=#A8DADC;strokeColor=#457B9D;fontColor=#1D3557;" parent="1" vertex="1">
          <mxGeometry x="207" y="120" width="70" height="30" as="geometry" />
        </mxCell>
        <mxCell id="VAFXoOhc2AC8gTYa5GrT-18" style="edgeStyle=orthogonalEdgeStyle;rounded=0;orthogonalLoop=1;jettySize=auto;html=1;entryX=1;entryY=0.5;entryDx=0;entryDy=0;labelBackgroundColor=none;fontColor=default;strokeColor=#457B9D;" parent="1" source="VAFXoOhc2AC8gTYa5GrT-15" target="VAFXoOhc2AC8gTYa5GrT-6" edge="1">
          <mxGeometry relative="1" as="geometry" />
        </mxCell>
        <mxCell id="VAFXoOhc2AC8gTYa5GrT-15" value="c_id" style="ellipse;whiteSpace=wrap;html=1;labelBackgroundColor=none;fillColor=#A8DADC;strokeColor=#457B9D;fontColor=#1D3557;" parent="1" vertex="1">
          <mxGeometry x="467" y="110" width="70" height="30" as="geometry" />
        </mxCell>
        <mxCell id="VAFXoOhc2AC8gTYa5GrT-20" style="edgeStyle=orthogonalEdgeStyle;rounded=0;orthogonalLoop=1;jettySize=auto;html=1;exitX=0;exitY=1;exitDx=0;exitDy=0;entryX=0.75;entryY=0;entryDx=0;entryDy=0;labelBackgroundColor=none;fontColor=default;strokeColor=#457B9D;" parent="1" source="VAFXoOhc2AC8gTYa5GrT-19" target="FQ3WjTD64qkLmLY8OWqv-2" edge="1">
          <mxGeometry relative="1" as="geometry">
            <Array as="points">
              <mxPoint x="448" y="320" />
              <mxPoint x="445" y="320" />
            </Array>
          </mxGeometry>
        </mxCell>
        <mxCell id="VAFXoOhc2AC8gTYa5GrT-19" value="password" style="ellipse;whiteSpace=wrap;html=1;labelBackgroundColor=none;fillColor=#A8DADC;strokeColor=#457B9D;fontColor=#1D3557;" parent="1" vertex="1">
          <mxGeometry x="437.5" y="271" width="70" height="30" as="geometry" />
        </mxCell>
        <mxCell id="VAFXoOhc2AC8gTYa5GrT-26" value="&lt;b&gt;Gives&lt;/b&gt;" style="rhombus;whiteSpace=wrap;html=1;labelBackgroundColor=none;fillColor=#A8DADC;strokeColor=#457B9D;fontColor=#1D3557;" parent="1" vertex="1">
          <mxGeometry x="520.5" y="321" width="69" height="48" as="geometry" />
        </mxCell>
        <mxCell id="VAFXoOhc2AC8gTYa5GrT-40" value="&lt;u&gt;&lt;b&gt;f_id&lt;/b&gt;&lt;/u&gt;" style="ellipse;whiteSpace=wrap;html=1;labelBackgroundColor=none;fillColor=#A8DADC;strokeColor=#457B9D;fontColor=#1D3557;" parent="1" vertex="1">
          <mxGeometry x="387" y="70" width="70" height="30" as="geometry" />
        </mxCell>
        <mxCell id="VAFXoOhc2AC8gTYa5GrT-45" style="edgeStyle=orthogonalEdgeStyle;rounded=0;orthogonalLoop=1;jettySize=auto;html=1;exitX=1;exitY=1;exitDx=0;exitDy=0;entryX=0.19;entryY=-0.018;entryDx=0;entryDy=0;entryPerimeter=0;labelBackgroundColor=none;fontColor=default;strokeColor=#457B9D;" parent="1" source="VAFXoOhc2AC8gTYa5GrT-12" target="VAFXoOhc2AC8gTYa5GrT-6" edge="1">
          <mxGeometry relative="1" as="geometry" />
        </mxCell>
        <mxCell id="VAFXoOhc2AC8gTYa5GrT-46" style="edgeStyle=orthogonalEdgeStyle;rounded=0;orthogonalLoop=1;jettySize=auto;html=1;exitX=0;exitY=1;exitDx=0;exitDy=0;entryX=0.695;entryY=-0.018;entryDx=0;entryDy=0;entryPerimeter=0;labelBackgroundColor=none;fontColor=default;strokeColor=#457B9D;" parent="1" source="VAFXoOhc2AC8gTYa5GrT-40" target="VAFXoOhc2AC8gTYa5GrT-6" edge="1">
          <mxGeometry relative="1" as="geometry" />
        </mxCell>
        <mxCell id="ADbwqhk_q8TL12jHsv7n-1" value="p_images" style="ellipse;whiteSpace=wrap;html=1;labelBackgroundColor=none;fillColor=#A8DADC;strokeColor=#457B9D;fontColor=#1D3557;" vertex="1" parent="1">
          <mxGeometry x="471" y="710" width="70" height="30" as="geometry" />
        </mxCell>
        <mxCell id="ADbwqhk_q8TL12jHsv7n-3" style="edgeStyle=orthogonalEdgeStyle;rounded=0;orthogonalLoop=1;jettySize=auto;html=1;exitX=1;exitY=0;exitDx=0;exitDy=0;entryX=0.378;entryY=1.012;entryDx=0;entryDy=0;entryPerimeter=0;labelBackgroundColor=none;strokeColor=#457B9D;fontColor=default;" edge="1" parent="1" source="ADbwqhk_q8TL12jHsv7n-1" target="FQ3WjTD64qkLmLY8OWqv-35">
          <mxGeometry relative="1" as="geometry" />
        </mxCell>
        <mxCell id="ADbwqhk_q8TL12jHsv7n-5" style="edgeStyle=orthogonalEdgeStyle;rounded=0;orthogonalLoop=1;jettySize=auto;html=1;exitX=0;exitY=0;exitDx=0;exitDy=0;entryX=0.689;entryY=0.963;entryDx=0;entryDy=0;entryPerimeter=0;labelBackgroundColor=none;strokeColor=#457B9D;fontColor=default;" edge="1" parent="1" source="FQ3WjTD64qkLmLY8OWqv-49" target="FQ3WjTD64qkLmLY8OWqv-35">
          <mxGeometry relative="1" as="geometry" />
        </mxCell>
        <mxCell id="ADbwqhk_q8TL12jHsv7n-7" style="edgeStyle=orthogonalEdgeStyle;rounded=0;orthogonalLoop=1;jettySize=auto;html=1;exitX=1;exitY=0.5;exitDx=0;exitDy=0;entryX=0.172;entryY=1.012;entryDx=0;entryDy=0;entryPerimeter=0;labelBackgroundColor=none;strokeColor=#457B9D;fontColor=default;" edge="1" parent="1" source="FQ3WjTD64qkLmLY8OWqv-48" target="FQ3WjTD64qkLmLY8OWqv-35">
          <mxGeometry relative="1" as="geometry" />
        </mxCell>
        <mxCell id="ADbwqhk_q8TL12jHsv7n-10" value="&lt;b&gt;&lt;font style=&quot;font-size: 14px;&quot;&gt;Feedback&lt;/font&gt;&lt;/b&gt;" style="rounded=0;whiteSpace=wrap;html=1;labelBackgroundColor=none;fillColor=#A8DADC;strokeColor=#457B9D;fontColor=#1D3557;" vertex="1" parent="1">
          <mxGeometry x="600" y="150" width="90" height="40" as="geometry" />
        </mxCell>
      </root>
    </mxGraphModel>
  </diagram>
</mxfile>
